<svg width="165" height="38" viewBox="0 0 165 38" fill="none" xmlns="http://www.w3.org/2000/svg">
<path d="M11.3782 38V5.07567H0.246727L1.97828 1.11783H26.4675L24.7359 5.07567H15.336V36.2684L11.3782 38ZM27.6845 1.11783H47.5232L45.7916 5.07567H38.717V33.5474H47.5232L45.7916 37.5053H25.9529L27.6845 33.5474H34.7591V5.07567H25.9529L27.6845 1.11783ZM48.6165 38V7.35144C48.6165 5.50444 49.2762 3.9213 50.5955 2.60202C51.9147 1.28274 53.5061 0.623099 55.3696 0.623099C57.2991 0.623099 58.8904 1.26625 60.1438 2.55255C61.463 1.26625 63.0462 0.623099 64.8932 0.623099C66.8721 0.623099 68.48 1.26625 69.7168 2.55255C70.9701 3.85534 71.605 5.46321 71.6215 7.37617V36.2684L67.6637 38L67.6884 7.47512C67.6884 6.65057 67.4163 5.9497 66.8721 5.37251C66.3279 4.79533 65.6847 4.50673 64.9427 4.50673C64.1676 4.50673 63.5079 4.79533 62.9637 5.37251C62.403 5.96619 62.1227 6.65881 62.1227 7.45038V7.47512L62.098 36.2684L58.1401 38L58.1648 7.47512C58.1648 6.65057 57.8927 5.9497 57.3485 5.37251C56.8043 4.79533 56.1612 4.50673 55.4191 4.50673C54.6605 4.50673 54.0009 4.79533 53.4402 5.37251C52.8795 5.9497 52.5991 6.65057 52.5991 7.47512L52.5744 36.2684L48.6165 38ZM78.2806 21.3028V33.5474H95.893L94.1614 37.5053H74.3227V2.82465L78.2806 1.09309L92.6772 1.11783L90.9457 5.07567H78.2806V17.345H92.6772L90.9457 21.3028H78.2806Z" fill="#6C5E5E"/>
<path d="M95.7248 38V2.35466L99.6826 0.623099V19.7444L113.362 0.623099L117.072 2.35466L106.362 17.345H106.881C109.981 17.345 112.612 18.4252 114.772 20.5855C116.949 22.7458 118.037 25.3349 118.037 28.3528V36.2684L114.079 38V28.2785C114.063 26.2996 113.354 24.6175 111.952 23.2323C110.534 21.8306 108.843 21.1297 106.881 21.1297C104.902 21.1297 103.203 21.8306 101.785 23.2323C100.384 24.6175 99.6826 26.2749 99.6826 28.2043V28.2785V36.2684L95.7248 38ZM125.043 21.3028V33.5474H142.655L140.923 37.5053H121.085V2.82465L125.043 1.09309L139.439 1.11783L137.708 5.07567H125.043V17.345H139.439L137.708 21.3028H125.043ZM151.664 38V26.6707C149.421 26.2914 147.451 25.2689 145.752 23.6033C143.575 21.443 142.487 18.8457 142.487 15.8113V2.35466L146.445 0.623099V15.8855C146.461 17.8645 147.17 19.5465 148.572 20.9318C149.99 22.3335 151.68 23.0344 153.643 23.0344C155.622 23.0344 157.32 22.3335 158.739 20.9318C160.14 19.5465 160.841 17.8892 160.841 15.9597V15.8855V2.35466L164.799 0.623099V15.8113C164.799 18.8457 163.711 21.443 161.534 23.6033C159.835 25.2689 157.865 26.2914 155.622 26.6707V36.2684L151.664 38Z" fill="#F4D878"/>
</svg>
