<svg
  width="33"
  height="41"
  viewBox="0 0 33 41"
  fill="none"
  xmlns="http://www.w3.org/2000/svg"
>
<rect
    x="5"
    y="7"
    width="23"
    height="22"
    fill="black"
  />
<path
    d="M16.5 26.8125C18.425 26.8125 20.1609 26.3395 21.7078 25.3935C23.2547 24.4489 24.475 23.2031 25.3687 21.6562C24.1656 20.6594 22.8078 19.8942 21.2953 19.3607C19.7828 18.8286 18.1844 18.5625 16.5 18.5625C14.8156 18.5625 13.2172 18.8286 11.7047 19.3607C10.1922 19.8942 8.83437 20.6594 7.63125 21.6562C8.525 23.2031 9.74531 24.4489 11.2922 25.3935C12.8391 26.3395 14.575 26.8125 16.5 26.8125ZM16.5 16.5C17.6344 16.5 18.6058 16.0957 19.4143 15.2872C20.2214 14.4801 20.625 13.5094 20.625 12.375C20.625 11.2406 20.2214 10.2699 19.4143 9.46275C18.6058 8.65425 17.6344 8.25 16.5 8.25C15.3656 8.25 14.3949 8.65425 13.5878 9.46275C12.7793 10.2699 12.375 11.2406 12.375 12.375C12.375 13.5094 12.7793 14.4801 13.5878 15.2872C14.3949 16.0957 15.3656 16.5 16.5 16.5ZM16.5 40.4766C16.225 40.4766 15.95 40.425 15.675 40.3219C15.4 40.2187 15.1594 40.0812 14.9531 39.9094C9.93437 35.475 6.1875 31.3589 3.7125 27.5612C1.2375 23.7621 0 20.2125 0 16.9125C0 11.7563 1.65894 7.64844 4.97681 4.58906C8.29331 1.52969 12.1344 0 16.5 0C20.8656 0 24.7067 1.52969 28.0232 4.58906C31.3411 7.64844 33 11.7563 33 16.9125C33 20.2125 31.7625 23.7621 29.2875 27.5612C26.8125 31.3589 23.0656 35.475 18.0469 39.9094C17.8406 40.0812 17.6 40.2187 17.325 40.3219C17.05 40.425 16.775 40.4766 16.5 40.4766Z"
    fill="#FFF16F"
  />
</svg>
